# xmcd
#
# Track frame offsets:
#	150
#	14243
#	30018
#	45444
#	61086
#	75016
#	87730
#	102934
#	116078
#	131615
#	142317
#	157237
#	172673
#	187542
#	199163
#
# Disc length: 2870 seconds
#
# Revision: 0
# Processed by: cddbd v1.5.2PL0 Copyright (c) Steve Scherf et al.
# Submitted via: EasyCDDAExtractor 16.0.6.1
#
DISCID=bb0b340f
DTITLE=Συλλογικός δίσκος - Ένας φίλος απ' τα παλιά 4
DYEAR=2011
DGENRE=Ελαφρά
TTITLE0=Γιούλη Σμαρούλα-Τρίο Κιτάρα - Βίρα τις άγκυρες
TTITLE1=Κορώνης Σπύρος-Φίλανδρος-Λαμπίρη Ελένη - Βρε πώς μπατηρήσαμε
TTITLE2=Βέμπο Σοφία - Να με πέρνανε τα σύννεφα
TTITLE3=Τρίο Κιτάρα - Σε μαγικά νησιά
TTITLE4=Μελάγια Μάγια-Τρίο Κιτάρα - Έλα μου κοπέλα μου
TTITLE5=Βέμπο Σοφία - Το πρωΐ με ξυπνάς με φιλιά
TTITLE6=Ευστρατοπούλου Κούλα - Πάμε σαν άλλοτε
TTITLE7=Μόλλυ Νίτσα - Εγώ θα σ' αγαπώ
TTITLE8=Βλαχοπούλου Ρένα - Ομόνοια πλαζ
TTITLE9=Πολυμέρης Φώτης - Γέλα, αγάπα και τραγούδα
TTITLE10=Παναγόπουλος Σώτος-Μελάγια Μάγια - Γλυκειά Μαντόνα
TTITLE11=Μπελίντα Καίτη-Λαμπίρη Ελένη - Της γυναίκας η καρδιά
TTITLE12=Βέμπο Σοφία - Αθήνα και πάλι Αθήνα
TTITLE13=Τρίο Κιτάρα - Δεν πάω σπίτι μου απόψε
TTITLE14=Γούναρης Νίκος - Για τις γυναίκες ζούμε
EXTD=
EXTT0=
EXTT1=
EXTT2=
EXTT3=
EXTT4=
EXTT5=
EXTT6=
EXTT7=
EXTT8=
EXTT9=
EXTT10=
EXTT11=
EXTT12=
EXTT13=
EXTT14=
PLAYORDER=
